<svg xmlns="http://www.w3.org/2000/svg" width="178" height="116" viewBox="0 0 178 116">
<!-- SVG created with Arrow, by QuiverAI (https://quiver.ai) -->
  <path d="m171.1 0.34h-163.5c-3.82 0-6.29 3.58-6.29 7.06v61.21l11.97-21.17v-29.25h151.5v84.42h-151.5v-10.99h-11.97v16.28c0 4.56 3.14 7.44 6.82 7.44h162.4c4.57 0 6.68-4.27 6.68-7.15v-100.8c0-3.99-2.86-7.06-6.03-7.06z" fill="#54C0E8"/>
  <path d="m4.61 86.16h37.55c1.63 0 1.63-2.12 1.63-2.12v-10.71c0-2.2-1.56-2.42-2.13-2.42h-13.77c-1.7 0-1.85-1.76-1.28-2.72l14.06-24.24c1.06-1.62 0.14-3.24-1.63-3.24h-12.85c-1.27 0-2.12 0.64-2.54 1.53l-21.61 39.12c-1.34 2.46 0.29 4.8 2.57 4.8z" fill="#000"/>
  <path d="m72.48 26.42h35.56c3.02 0 3.72 3.51 2.74 5.2l-21.61 37.53c-0.64 1.17-1.2 1.68-2.4 1.68h-11.68c-1.63 0-2.13-1.9-1.42-3.14l13.55-24.62c0.82-1.48-0.07-2.51-1.13-2.43h-13.75c-1.7 0-2.2-1.41-2.2-2.58v-8.96c0-1.76 0.71-2.68 2.34-2.68z" fill="#000"/>
</svg>